<svg xmlns="http://www.w3.org/2000/svg" xmlns:xlink="http://www.w3.org/1999/xlink" viewBox="0,0,256,256" width="150px" height="150px" fill-rule="nonzero"><g fill-opacity="0" fill="#ffffff" fill-rule="nonzero" stroke="none" stroke-width="1" stroke-linecap="butt" stroke-linejoin="miter" stroke-miterlimit="10" stroke-dasharray="" stroke-dashoffset="0" font-family="none" font-weight="none" font-size="none" text-anchor="none" style="mix-blend-mode: normal"><path d="M0,256v-256h256v256z" id="bgRectangle"></path></g><g fill="#0072c3" fill-rule="nonzero" stroke="none" stroke-width="1" stroke-linecap="butt" stroke-linejoin="miter" stroke-miterlimit="10" stroke-dasharray="" stroke-dashoffset="0" font-family="none" font-weight="none" font-size="none" text-anchor="none" style="mix-blend-mode: normal"><g transform="scale(5.12,5.12)"><path d="M23.723,16.85h4.365l0.285,-0.205l0.813,-2.487l0.285,-0.205h3.342l0.418,0.083l1.065,0.445l0.359,-0.062l2.843,-2.612l-0.039,-0.229l-3.172,-1.332l-0.233,-0.296l-0.442,-2.828l0.166,-0.131l3.169,1.329l0.166,-0.131l-0.513,-3.263l0.116,-0.371l0.697,-0.73l-0.039,-0.264l-0.902,-0.525l-0.388,-0.036l-4.312,1.561l-0.407,-0.009l-1.273,-0.534l-0.267,0.122l-0.166,0.516l0.101,0.338l0.635,0.51l0.018,0.291l-0.424,0.427l-0.353,0.068l-1.309,-0.549l-0.134,-0.291l0.573,-1.757l-0.131,-0.291l-0.816,-0.341l-0.267,0.122l-0.793,2.417l-0.012,0.415l0.504,1.929l-0.011,0.416l-1.76,5.386l-0.285,0.208h-0.95l-0.255,0.214l-0.445,2.469l0.178,0.213M32.95,14.817h-2.852l-0.285,0.205l-0.528,1.62l0.148,0.208h3.834l0.184,-0.217l-0.252,-1.603l-0.249,-0.213M37.932,6.012l0.223,0.11l0.95,-0.525l0.05,-0.273l-0.778,-0.95l-0.287,-0.012l-0.208,0.217l-0.119,0.371M38.14,7.345l0.214,1.365l0.234,0.297l2.347,0.985l0.279,0.288l0.24,0.614l0.297,0.19l0.549,-0.033l0.282,-0.22l0.769,-2.341l-0.107,-0.338l-1.252,-0.941l-0.196,-0.344l-0.151,-1.46l-0.211,-0.113l-3.137,1.733l-0.157,0.318M45.826,7.606l-2.781,-1.614l-0.166,0.107l0.05,0.49l0.193,0.347l1.38,1.056l0.104,0.338l-1.151,3.526l-0.285,0.22l-3.748,0.223l-0.329,0.199l-1.843,2.994l0.086,0.267l0.837,0.353l0.131,0.288l-0.792,2.395l-0.27,0.122l-2.202,-0.923l-0.415,-0.083h-0.755l-0.184,0.214l0.721,4.582l0.223,0.321l3.161,1.781l-0.027,0.119l-2.764,0.157l-0.306,0.211l-2.674,6.06l-0.139,0.407l-2.888,12.31l0.068,0.389l0.588,0.878l-0.095,0.178h-0.617l-0.338,-0.178l-0.466,-0.694l-0.077,-0.392l2.511,-12.307l-0.057,-0.407l-1.214,-2.362l0.042,-0.359l3.98,-4.6l0.107,-0.38l-0.899,-5.716l-0.249,-0.217h-8.553l-0.217,0.22v0.288l-0.157,0.365l-13.934,12.915l-0.374,0.148h-1.822l-0.377,0.145l-0.935,0.87l-0.047,0.335l1.718,2.974l0.039,0.395l-3.229,9.277l0.039,0.392l0.326,0.558l0.326,0.19h6.357l0.258,-0.214l0.139,-0.718l-0.086,-0.389l-1.338,-1.837l0.08,-0.234l8.022,-2.419l0.05,-0.214l-2.395,-2.344l-0.341,-0.042l-6.935,4.158l-0.291,0.302l-1.249,2.3l-0.318,0.19h-0.525l-0.131,-0.196l2.715,-6.19l0.3,-0.231l5.852,-0.95l0.249,-0.249l0.991,-6.134l-0.128,-0.359l-1.223,-1.08l-0.122,-0.356l0.142,-0.721l0.202,-0.068l2.149,1.899l0.199,0.359l1.511,9.033l0.137,0.021l2.175,-4.229l0.315,-0.154l2.62,0.472l0.3,-0.16l0.846,-2.024l0.047,-0.412l-1.775,-10.589l0.098,-0.042l3.926,5.078l0.047,0.371l-1.469,3.508l0.006,0.398l1.353,2.941l0.05,0.41l-1.938,9.968l0.065,0.401l0.329,0.558l0.323,0.19h6.282l0.282,-0.208l0.237,-0.73l-0.068,-0.377l-2.38,-2.965l-0.045,-0.365l2.896,-6.051l0.127,-0.414l0.552,-4.466l0.163,-0.389l4.306,-5.38l0.134,-0.386l-0.119,-4.653l-0.136,-0.393l-0.374,-0.51l-0.062,-0.38l0.819,-2.502l-0.042,-0.395l-0.493,-0.867l0.092,-0.273l5.294,-2.341l0.267,-0.291l1.543,-4.722l-0.118,-0.316"></path></g></g></svg>